# xmcd
#
# Track frame offsets:
#	150
#	14667
#	25595
#	39832
#	53177
#	71475
#	84095
#	100032
#	111800
#	120925
#	134792
#	147610
#
# Disc length: 2048
#
# Revision: 3
# Processed by: cddbd v1.5.1PL0 Copyright (c) Steve Scherf et al.
# Submitted via: OrangeCD 5.1
# Normalized: r2:DSETVAR1
#
DISCID=9a07fe0c
DTITLE=Various Artist - The Beverly Hillbillies Soundtrack
DYEAR=1993
DGENRE=Soundtrack
TTITLE0=Joe Diffie - White Lightnin'
TTITLE1=The Oak Ridge Boys - I Ain't  Never
TTITLE2=Lorrie Morgan - Crying Time
TTITLE3=Sammy Kershaw - I'm Movin' On
TTITLE4=Aaron Tippin - I'm So Lonely I Could Cry
TTITLE5=Jim Varney Featuring Ricky Skaggs - Hot Rod Lincoln
TTITLE6=Joe Walsh and Steve Earle - Honey Don't
TTITLE7=Doug Supernaw - Together Again
TTITLE8=Ricky Van Shelton - If You've Got The Money I've Got The Time
TTITLE9=Texas Tornadoes Vocal By Freddie Fender - Wasted Days And Wasted Nights
TTITLE10=Dolly Parton - If You Ain't Got Love
TTITLE11=Jerry Scoggins - The Ballad Of Jed Clampett
EXTD=
EXTT0=
EXTT1=
EXTT2=
EXTT3=
EXTT4=
EXTT5=
EXTT6=
EXTT7=
EXTT8=
EXTT9=
EXTT10=
EXTT11=
PLAYORDER=
